# Blender v3.2.2 OBJ File: 'low_poly_sphere.blend'
# www.blender.org
o Cube
v 1.000000 1.000000 -1.000000
v 1.000000 -1.000000 -1.000000
v 1.000000 1.000000 1.000000
v 1.000000 -1.000000 1.000000
v -1.000000 1.000000 -1.000000
v -1.000000 -1.000000 -1.000000
v -1.000000 1.000000 1.000000
v -1.000000 -1.000000 1.000000
v -1.142178 -1.142178 -0.625186
v -1.215478 -1.215478 -0.212670
v -1.215477 -1.215477 0.212670
v -1.142178 -1.142178 0.625186
v 0.625186 -1.142178 -1.142178
v 0.212670 -1.215478 -1.215478
v -0.212670 -1.215477 -1.215477
v -0.625186 -1.142178 -1.142178
v 1.142178 0.625186 -1.142178
v 1.215478 0.212670 -1.215478
v 1.215477 -0.212670 -1.215477
v 1.142178 -0.625186 -1.142178
v -1.142178 -0.625186 1.142178
v -1.215478 -0.212670 1.215478
v -1.215477 0.212670 1.215477
v -1.142178 0.625186 1.142178
v 1.142178 0.625186 1.142178
v 1.215478 0.212670 1.215478
v 1.215477 -0.212670 1.215477
v 1.142178 -0.625186 1.142178
v -1.142178 0.625186 -1.142178
v -1.215478 0.212670 -1.215478
v -1.215477 -0.212670 -1.215477
v -1.142178 -0.625186 -1.142178
v 0.625186 1.142178 1.142178
v 0.212670 1.215478 1.215478
v -0.212670 1.215477 1.215477
v -0.625186 1.142178 1.142178
v 1.142178 1.142178 -0.625186
v 1.215478 1.215478 -0.212670
v 1.215477 1.215477 0.212670
v 1.142178 1.142178 0.625186
v -0.625186 -1.142178 1.142178
v -0.212670 -1.215478 1.215478
v 0.212670 -1.215477 1.215477
v 0.625186 -1.142178 1.142178
v -1.142178 1.142178 0.625186
v -1.215478 1.215478 0.212670
v -1.215477 1.215477 -0.212670
v -1.142178 1.142178 -0.625186
v -0.625186 1.142178 -1.142178
v -0.212670 1.215478 -1.215478
v 0.212670 1.215477 -1.215477
v 0.625186 1.142178 -1.142178
v 1.142178 -1.142178 0.625186
v 1.215478 -1.215478 0.212670
v 1.215477 -1.215477 -0.212670
v 1.142178 -1.142178 -0.625186
v -0.723952 -0.762217 -1.370563
v -0.247916 -0.833582 -1.489504
v 0.247916 -0.833581 -1.489504
v 0.723952 -0.762217 -1.370563
v -0.779037 -0.273838 -1.521313
v -0.268215 -0.305954 -1.681896
v 0.268215 -0.305954 -1.681896
v 0.779037 -0.273837 -1.521313
v -0.779037 0.273838 -1.521313
v -0.268215 0.305954 -1.681897
v 0.268215 0.305954 -1.681897
v 0.779037 0.273838 -1.521313
v -0.723952 0.762217 -1.370563
v -0.247916 0.833581 -1.489504
v 0.247916 0.833581 -1.489504
v 0.723952 0.762217 -1.370563
v 1.370563 -0.762217 -0.723952
v 1.489504 -0.833582 -0.247916
v 1.489504 -0.833581 0.247916
v 1.370563 -0.762217 0.723952
v 1.521313 -0.273838 -0.779037
v 1.681896 -0.305954 -0.268215
v 1.681896 -0.305954 0.268215
v 1.521313 -0.273837 0.779037
v 1.521313 0.273838 -0.779037
v 1.681897 0.305954 -0.268215
v 1.681897 0.305954 0.268215
v 1.521313 0.273838 0.779037
v 1.370563 0.762217 -0.723952
v 1.489504 0.833581 -0.247916
v 1.489504 0.833581 0.247916
v 1.370563 0.762217 0.723952
v -0.762217 -1.370563 -0.723952
v -0.833582 -1.489504 -0.247916
v -0.833581 -1.489504 0.247916
v -0.762217 -1.370563 0.723952
v -0.273837 -1.521313 -0.779037
v -0.305954 -1.681897 -0.268215
v -0.305954 -1.681896 0.268215
v -0.273838 -1.521313 0.779037
v 0.273838 -1.521313 -0.779037
v 0.305954 -1.681897 -0.268215
v 0.305954 -1.681896 0.268215
v 0.273837 -1.521313 0.779037
v 0.762217 -1.370563 -0.723952
v 0.833582 -1.489504 -0.247916
v 0.833581 -1.489504 0.247916
v 0.762217 -1.370563 0.723952
v -1.370563 -0.762217 0.723952
v -1.489504 -0.833582 0.247916
v -1.489504 -0.833581 -0.247916
v -1.370563 -0.762217 -0.723952
v -1.521313 -0.273838 0.779037
v -1.681897 -0.305954 0.268215
v -1.681896 -0.305954 -0.268215
v -1.521313 -0.273837 -0.779037
v -1.521313 0.273837 0.779037
v -1.681897 0.305954 0.268215
v -1.681896 0.305954 -0.268215
v -1.521313 0.273838 -0.779037
v -1.370563 0.762217 0.723952
v -1.489504 0.833581 0.247916
v -1.489504 0.833581 -0.247916
v -1.370563 0.762217 -0.723952
v 0.723952 -0.762217 1.370563
v 0.247916 -0.833581 1.489504
v -0.247916 -0.833581 1.489504
v -0.723952 -0.762217 1.370563
v 0.779037 -0.273837 1.521313
v 0.268215 -0.305954 1.681897
v -0.268215 -0.305954 1.681896
v -0.779037 -0.273838 1.521313
v 0.779037 0.273838 1.521313
v 0.268215 0.305954 1.681897
v -0.268215 0.305954 1.681896
v -0.779037 0.273837 1.521313
v 0.723952 0.762217 1.370563
v 0.247916 0.833582 1.489504
v -0.247916 0.833581 1.489504
v -0.723952 0.762217 1.370563
v 0.762217 1.370563 -0.723952
v 0.833582 1.489504 -0.247916
v 0.833581 1.489504 0.247916
v 0.762217 1.370563 0.723952
v 0.273837 1.521313 -0.779037
v 0.305954 1.681897 -0.268215
v 0.305954 1.681896 0.268215
v 0.273838 1.521313 0.779037
v -0.273838 1.521313 -0.779037
v -0.305954 1.681897 -0.268215
v -0.305954 1.681896 0.268215
v -0.273837 1.521313 0.779037
v -0.762217 1.370563 -0.723952
v -0.833582 1.489504 -0.247916
v -0.833581 1.489504 0.247916
v -0.762217 1.370563 0.723952
vt 0.825000 0.700000
vt 0.875000 0.750000
vt 0.825000 0.750000
vt 0.575000 0.950000
vt 0.625000 1.000000
vt 0.575000 1.000000
vt 0.575000 0.200000
vt 0.625000 0.250000
vt 0.575000 0.250000
vt 0.325000 0.700000
vt 0.375000 0.750000
vt 0.325000 0.750000
vt 0.575000 0.700000
vt 0.625000 0.750000
vt 0.575000 0.750000
vt 0.575000 0.450000
vt 0.625000 0.500000
vt 0.575000 0.500000
vt 0.425000 0.450000
vt 0.375000 0.500000
vt 0.375000 0.450000
vt 0.475000 0.450000
vt 0.425000 0.500000
vt 0.525000 0.450000
vt 0.475000 0.500000
vt 0.525000 0.500000
vt 0.375000 0.250000
vt 0.425000 0.300000
vt 0.375000 0.300000
vt 0.425000 0.350000
vt 0.375000 0.350000
vt 0.375000 0.400000
vt 0.425000 0.400000
vt 0.425000 0.250000
vt 0.475000 0.300000
vt 0.475000 0.350000
vt 0.475000 0.400000
vt 0.525000 0.250000
vt 0.475000 0.250000
vt 0.525000 0.300000
vt 0.525000 0.350000
vt 0.525000 0.400000
vt 0.575000 0.300000
vt 0.575000 0.350000
vt 0.625000 0.300000
vt 0.625000 0.350000
vt 0.575000 0.400000
vt 0.625000 0.450000
vt 0.425000 0.700000
vt 0.375000 0.700000
vt 0.475000 0.700000
vt 0.425000 0.750000
vt 0.525000 0.700000
vt 0.475000 0.750000
vt 0.525000 0.750000
vt 0.425000 0.550000
vt 0.375000 0.550000
vt 0.425000 0.600000
vt 0.375000 0.600000
vt 0.375000 0.650000
vt 0.425000 0.650000
vt 0.475000 0.550000
vt 0.475000 0.600000
vt 0.475000 0.650000
vt 0.525000 0.550000
vt 0.525000 0.600000
vt 0.525000 0.650000
vt 0.575000 0.550000
vt 0.575000 0.600000
vt 0.625000 0.550000
vt 0.625000 0.600000
vt 0.575000 0.650000
vt 0.625000 0.700000
vt 0.175000 0.700000
vt 0.125000 0.750000
vt 0.125000 0.700000
vt 0.225000 0.700000
vt 0.175000 0.750000
vt 0.275000 0.700000
vt 0.225000 0.750000
vt 0.275000 0.750000
vt 0.125000 0.500000
vt 0.175000 0.550000
vt 0.125000 0.550000
vt 0.175000 0.600000
vt 0.125000 0.600000
vt 0.125000 0.650000
vt 0.175000 0.650000
vt 0.175000 0.500000
vt 0.225000 0.550000
vt 0.225000 0.600000
vt 0.225000 0.650000
vt 0.275000 0.500000
vt 0.225000 0.500000
vt 0.275000 0.600000
vt 0.275000 0.650000
vt 0.325000 0.500000
vt 0.275000 0.550000
vt 0.325000 0.550000
vt 0.325000 0.600000
vt 0.325000 0.650000
vt 0.425000 0.200000
vt 0.375000 0.200000
vt 0.475000 0.200000
vt 0.525000 0.200000
vt 0.375000 0.000000
vt 0.425000 0.050000
vt 0.375000 0.050000
vt 0.425000 0.100000
vt 0.375000 0.100000
vt 0.425000 0.150000
vt 0.375000 0.150000
vt 0.425000 0.000000
vt 0.475000 0.050000
vt 0.475000 0.100000
vt 0.475000 0.150000
vt 0.525000 0.000000
vt 0.475000 0.000000
vt 0.525000 0.050000
vt 0.525000 0.100000
vt 0.525000 0.150000
vt 0.575000 0.000000
vt 0.575000 0.050000
vt 0.575000 0.100000
vt 0.625000 0.000000
vt 0.625000 0.050000
vt 0.625000 0.150000
vt 0.575000 0.150000
vt 0.625000 0.200000
vt 0.425000 0.950000
vt 0.375000 1.000000
vt 0.375000 0.950000
vt 0.475000 0.950000
vt 0.425000 1.000000
vt 0.525000 0.950000
vt 0.475000 1.000000
vt 0.525000 1.000000
vt 0.425000 0.800000
vt 0.375000 0.800000
vt 0.425000 0.850000
vt 0.375000 0.850000
vt 0.375000 0.900000
vt 0.425000 0.900000
vt 0.475000 0.800000
vt 0.475000 0.850000
vt 0.475000 0.900000
vt 0.525000 0.800000
vt 0.525000 0.850000
vt 0.525000 0.900000
vt 0.575000 0.800000
vt 0.575000 0.850000
vt 0.625000 0.800000
vt 0.625000 0.850000
vt 0.575000 0.900000
vt 0.625000 0.950000
vt 0.675000 0.700000
vt 0.725000 0.700000
vt 0.675000 0.750000
vt 0.775000 0.700000
vt 0.725000 0.750000
vt 0.775000 0.750000
vt 0.675000 0.550000
vt 0.675000 0.600000
vt 0.625000 0.650000
vt 0.675000 0.650000
vt 0.675000 0.500000
vt 0.725000 0.550000
vt 0.725000 0.600000
vt 0.725000 0.650000
vt 0.775000 0.500000
vt 0.725000 0.500000
vt 0.775000 0.600000
vt 0.775000 0.650000
vt 0.825000 0.500000
vt 0.775000 0.550000
vt 0.825000 0.550000
vt 0.825000 0.600000
vt 0.875000 0.500000
vt 0.875000 0.550000
vt 0.875000 0.600000
vt 0.825000 0.650000
vt 0.875000 0.700000
vt 0.625000 0.400000
vt 0.625000 0.100000
vt 0.625000 0.900000
vt 0.875000 0.650000
vn -0.4272 0.8077 0.4063
vn -0.5773 0.5769 0.5778
vn -0.3523 0.6641 0.6594
vn -0.4063 0.4272 0.8077
vn -0.6615 0.3532 0.6615
vn -0.8077 0.4272 -0.4063
vn -0.5774 0.5769 -0.5778
vn -0.6615 0.3532 -0.6615
vn 0.4272 -0.8077 0.4063
vn 0.5774 -0.5769 0.5778
vn 0.3523 -0.6641 0.6594
vn 0.8077 0.4272 0.4063
vn 0.5774 0.5769 0.5778
vn 0.6615 0.3532 0.6615
vn 0.4063 0.4272 -0.8077
vn 0.5774 0.5769 -0.5778
vn 0.6615 0.3532 -0.6615
vn 0.4063 -0.4272 -0.8077
vn 0.5774 -0.5769 -0.5778
vn 0.3523 -0.6641 -0.6594
vn 0.4404 -0.1502 -0.8852
vn 0.6615 -0.3532 -0.6615
vn 0.4404 0.1502 -0.8852
vn 0.7026 -0.1125 -0.7026
vn 0.7026 0.1125 -0.7026
vn -0.5774 -0.5769 -0.5778
vn -0.4063 -0.4272 -0.8077
vn -0.3523 -0.6641 -0.6594
vn -0.1364 -0.4656 -0.8744
vn -0.1141 -0.7049 -0.7000
vn 0.1141 -0.7049 -0.7000
vn 0.1364 -0.4656 -0.8744
vn -0.6615 -0.3532 -0.6615
vn -0.4404 -0.1502 -0.8852
vn -0.1503 -0.1716 -0.9736
vn 0.1503 -0.1716 -0.9736
vn -0.7026 0.1125 -0.7026
vn -0.7026 -0.1125 -0.7026
vn -0.4404 0.1502 -0.8852
vn -0.1503 0.1716 -0.9736
vn 0.1503 0.1716 -0.9736
vn -0.4063 0.4272 -0.8077
vn -0.1364 0.4656 -0.8744
vn -0.3523 0.6641 -0.6594
vn -0.1141 0.7049 -0.7000
vn 0.1364 0.4656 -0.8744
vn 0.3523 0.6641 -0.6594
vn 0.8077 -0.4272 0.4063
vn 0.6620 -0.6620 0.3514
vn 0.8852 -0.1502 0.4404
vn 0.6615 -0.3532 0.6615
vn 0.8852 0.1502 0.4404
vn 0.7026 -0.1125 0.7026
vn 0.7026 0.1125 0.7026
vn 0.8077 -0.4272 -0.4063
vn 0.6620 -0.6620 -0.3514
vn 0.8744 -0.4656 -0.1364
vn 0.7024 -0.7024 -0.1156
vn 0.7024 -0.7024 0.1156
vn 0.8744 -0.4656 0.1364
vn 0.8852 -0.1502 -0.4404
vn 0.9736 -0.1716 -0.1503
vn 0.9736 -0.1716 0.1503
vn 0.8852 0.1502 -0.4404
vn 0.9736 0.1716 -0.1503
vn 0.9736 0.1716 0.1503
vn 0.8077 0.4272 -0.4063
vn 0.8744 0.4656 -0.1364
vn 0.6620 0.6620 -0.3514
vn 0.7024 0.7024 -0.1156
vn 0.8744 0.4656 0.1364
vn 0.6620 0.6620 0.3514
vn -0.4272 -0.8077 0.4063
vn -0.5774 -0.5769 0.5778
vn -0.6620 -0.6620 0.3514
vn -0.1502 -0.8852 0.4404
vn -0.3523 -0.6641 0.6594
vn 0.1502 -0.8852 0.4404
vn -0.1141 -0.7049 0.7000
vn 0.1141 -0.7049 0.7000
vn -0.4272 -0.8077 -0.4063
vn -0.6620 -0.6620 -0.3514
vn -0.4656 -0.8744 -0.1364
vn -0.7024 -0.7024 -0.1156
vn -0.7024 -0.7024 0.1156
vn -0.4656 -0.8744 0.1364
vn -0.1502 -0.8852 -0.4404
vn -0.1716 -0.9736 -0.1503
vn -0.1716 -0.9736 0.1503
vn 0.1716 -0.9736 -0.1503
vn 0.1716 -0.9736 0.1503
vn 0.1502 -0.8852 -0.4404
vn 0.4272 -0.8077 -0.4063
vn 0.4656 -0.8744 -0.1364
vn 0.4656 -0.8744 0.1364
vn -0.8077 -0.4272 -0.4063
vn -0.8852 -0.1502 -0.4404
vn -0.8852 0.1502 -0.4404
vn -0.8077 -0.4272 0.4063
vn -0.8744 -0.4656 0.1364
vn -0.8744 -0.4656 -0.1364
vn -0.6615 -0.3532 0.6615
vn -0.8852 -0.1502 0.4404
vn -0.9736 -0.1716 0.1503
vn -0.9736 -0.1716 -0.1503
vn -0.7026 0.1125 0.7026
vn -0.7026 -0.1125 0.7026
vn -0.8852 0.1502 0.4404
vn -0.9736 0.1716 0.1503
vn -0.9736 0.1716 -0.1503
vn -0.8077 0.4272 0.4063
vn -0.8744 0.4656 0.1364
vn -0.6620 0.6620 0.3514
vn -0.7024 0.7024 -0.1156
vn -0.8744 0.4656 -0.1364
vn -0.6620 0.6620 -0.3514
vn -0.4063 -0.4272 0.8077
vn -0.4404 -0.1502 0.8852
vn -0.4404 0.1502 0.8852
vn 0.4063 -0.4272 0.8077
vn 0.1364 -0.4656 0.8744
vn -0.1364 -0.4656 0.8744
vn 0.4404 -0.1502 0.8852
vn 0.1503 -0.1716 0.9736
vn -0.1503 -0.1716 0.9736
vn 0.4404 0.1502 0.8852
vn 0.1503 0.1716 0.9736
vn -0.1503 0.1716 0.9736
vn 0.4063 0.4272 0.8077
vn 0.1364 0.4656 0.8744
vn 0.3523 0.6641 0.6594
vn 0.1141 0.7049 0.7000
vn -0.1364 0.4656 0.8744
vn 0.4272 0.8077 0.4063
vn 0.1502 0.8852 0.4404
vn -0.1502 0.8852 0.4404
vn -0.1141 0.7049 0.7000
vn 0.4272 0.8077 -0.4063
vn 0.4656 0.8744 -0.1364
vn 0.7024 0.7024 0.1156
vn 0.4656 0.8744 0.1364
vn 0.1502 0.8852 -0.4404
vn 0.1716 0.9736 -0.1503
vn 0.1716 0.9736 0.1503
vn 0.1141 0.7049 -0.7000
vn -0.1716 0.9736 -0.1503
vn -0.1716 0.9736 0.1503
vn -0.1502 0.8852 -0.4404
vn -0.4272 0.8077 -0.4063
vn -0.4656 0.8744 -0.1364
vn -0.4656 0.8744 0.1364
vn -0.7024 0.7024 0.1156
s 1
f 152/1/1 7/2/2 36/3/3
f 136/4/4 7/5/2 24/6/5
f 120/7/6 5/8/7 29/9/8
f 104/10/9 4/11/10 44/12/11
f 88/13/12 3/14/13 25/15/14
f 72/16/15 1/17/16 17/18/17
f 60/19/18 2/20/19 13/21/20
f 64/22/21 20/23/22 60/19/18
f 68/24/23 19/25/24 64/22/21
f 68/24/23 17/18/17 18/26/25
f 6/27/26 57/28/27 16/29/28
f 16/29/28 58/30/29 15/31/30
f 58/30/29 14/32/31 15/31/30
f 59/33/32 13/21/20 14/32/31
f 32/34/33 61/35/34 57/28/27
f 57/28/27 62/36/35 58/30/29
f 62/36/35 59/33/32 58/30/29
f 63/37/36 60/19/18 59/33/32
f 30/38/37 61/35/34 31/39/38
f 65/40/39 62/36/35 61/35/34
f 66/41/40 63/37/36 62/36/35
f 67/42/41 64/22/21 63/37/36
f 29/9/8 65/40/39 30/38/37
f 69/43/42 66/41/40 65/40/39
f 70/44/43 67/42/41 66/41/40
f 67/42/41 72/16/15 68/24/23
f 5/8/7 69/43/42 29/9/8
f 49/45/44 70/44/43 69/43/42
f 50/46/45 71/47/46 70/44/43
f 71/47/46 52/48/47 72/16/15
f 76/49/48 4/11/10 53/50/49
f 80/51/50 28/52/51 76/49/48
f 84/53/52 27/54/53 80/51/50
f 84/53/52 25/15/14 26/55/54
f 2/20/19 73/56/55 56/57/56
f 56/57/56 74/58/57 55/59/58
f 74/58/57 54/60/59 55/59/58
f 75/61/60 53/50/49 54/60/59
f 20/23/22 77/62/61 73/56/55
f 73/56/55 78/63/62 74/58/57
f 78/63/62 75/61/60 74/58/57
f 79/64/63 76/49/48 75/61/60
f 18/26/25 77/62/61 19/25/24
f 81/65/64 78/63/62 77/62/61
f 82/66/65 79/64/63 78/63/62
f 83/67/66 80/51/50 79/64/63
f 17/18/17 81/65/64 18/26/25
f 85/68/67 82/66/65 81/65/64
f 86/69/68 83/67/66 82/66/65
f 83/67/66 88/13/12 84/53/52
f 1/17/16 85/68/67 17/18/17
f 37/70/69 86/69/68 85/68/67
f 38/71/70 87/72/71 86/69/68
f 87/72/71 40/73/72 88/13/12
f 92/74/73 8/75/74 12/76/75
f 96/77/76 41/78/77 92/74/73
f 100/79/78 42/80/79 96/77/76
f 100/79/78 44/12/11 43/81/80
f 6/82/26 89/83/81 9/84/82
f 9/84/82 90/85/83 10/86/84
f 90/85/83 11/87/85 10/86/84
f 91/88/86 12/76/75 11/87/85
f 16/89/28 93/90/87 89/83/81
f 89/83/81 94/91/88 90/85/83
f 90/85/83 95/92/89 91/88/86
f 95/92/89 92/74/73 91/88/86
f 14/93/31 93/90/87 15/94/30
f 93/90/87 98/95/90 94/91/88
f 94/91/88 99/96/91 95/92/89
f 95/92/89 100/79/78 96/77/76
f 13/97/20 97/98/92 14/93/31
f 101/99/93 98/95/90 97/98/92
f 102/100/94 99/96/91 98/95/90
f 99/96/91 104/10/9 100/79/78
f 2/20/19 101/99/93 13/97/20
f 56/57/56 102/100/94 101/99/93
f 55/59/58 103/101/95 102/100/94
f 103/101/95 53/50/49 104/10/9
f 108/102/96 6/27/26 9/103/82
f 112/104/97 32/34/33 108/102/96
f 116/105/98 31/39/38 112/104/97
f 116/105/98 29/9/8 30/38/37
f 8/106/74 105/107/99 12/108/75
f 12/108/75 106/109/100 11/110/85
f 11/110/85 107/111/101 10/112/84
f 107/111/101 9/103/82 10/112/84
f 21/113/102 109/114/103 105/107/99
f 105/107/99 110/115/104 106/109/100
f 106/109/100 111/116/105 107/111/101
f 111/116/105 108/102/96 107/111/101
f 23/117/106 109/114/103 22/118/107
f 113/119/108 110/115/104 109/114/103
f 114/120/109 111/116/105 110/115/104
f 115/121/110 112/104/97 111/116/105
f 24/122/5 113/119/108 23/117/106
f 117/123/111 114/120/109 113/119/108
f 118/124/112 115/121/110 114/120/109
f 115/121/110 120/7/6 116/105/98
f 7/125/2 117/123/111 24/122/5
f 45/126/113 118/124/112 117/123/111
f 118/124/112 47/127/114 119/128/115
f 119/128/115 48/129/116 120/7/6
f 124/130/117 8/131/74 41/132/77
f 128/133/118 21/134/102 124/130/117
f 132/135/119 22/136/107 128/133/118
f 132/135/119 24/6/5 23/137/106
f 4/11/10 121/138/120 44/139/11
f 44/139/11 122/140/121 43/141/80
f 122/140/121 42/142/79 43/141/80
f 123/143/122 41/132/77 42/142/79
f 28/52/51 125/144/123 121/138/120
f 121/138/120 126/145/124 122/140/121
f 126/145/124 123/143/122 122/140/121
f 127/146/125 124/130/117 123/143/122
f 27/54/53 129/147/126 125/144/123
f 125/144/123 130/148/127 126/145/124
f 126/145/124 131/149/128 127/146/125
f 127/146/125 132/135/119 128/133/118
f 25/15/14 129/147/126 26/55/54
f 133/150/129 130/148/127 129/147/126
f 134/151/130 131/149/128 130/148/127
f 131/149/128 136/4/4 132/135/119
f 3/14/13 133/150/129 25/15/14
f 33/152/131 134/151/130 133/150/129
f 34/153/132 135/154/133 134/151/130
f 135/154/133 36/155/3 136/4/4
f 140/156/134 3/14/13 40/73/72
f 144/157/135 33/158/131 140/156/134
f 148/159/136 34/160/132 144/157/135
f 148/159/136 36/3/3 35/161/137
f 1/17/16 137/162/138 37/70/69
f 37/70/69 138/163/139 38/71/70
f 138/163/139 39/164/140 38/71/70
f 139/165/141 40/73/72 39/164/140
f 52/166/47 141/167/142 137/162/138
f 137/162/138 142/168/143 138/163/139
f 138/163/139 143/169/144 139/165/141
f 143/169/144 140/156/134 139/165/141
f 50/170/45 141/167/142 51/171/145
f 141/167/142 146/172/146 142/168/143
f 142/168/143 147/173/147 143/169/144
f 143/169/144 148/159/136 144/157/135
f 49/174/44 145/175/148 50/170/45
f 149/176/149 146/172/146 145/175/148
f 150/177/150 147/173/147 146/172/146
f 147/173/147 152/1/1 148/159/136
f 5/178/7 149/176/149 49/174/44
f 48/179/116 150/177/150 149/176/149
f 47/180/114 151/181/151 150/177/150
f 151/181/151 45/182/113 152/1/1
f 152/1/1 45/182/113 7/2/2
f 136/4/4 36/155/3 7/5/2
f 120/7/6 48/129/116 5/8/7
f 104/10/9 53/50/49 4/11/10
f 88/13/12 40/73/72 3/14/13
f 72/16/15 52/48/47 1/17/16
f 60/19/18 20/23/22 2/20/19
f 64/22/21 19/25/24 20/23/22
f 68/24/23 18/26/25 19/25/24
f 68/24/23 72/16/15 17/18/17
f 6/27/26 32/34/33 57/28/27
f 16/29/28 57/28/27 58/30/29
f 58/30/29 59/33/32 14/32/31
f 59/33/32 60/19/18 13/21/20
f 32/34/33 31/39/38 61/35/34
f 57/28/27 61/35/34 62/36/35
f 62/36/35 63/37/36 59/33/32
f 63/37/36 64/22/21 60/19/18
f 30/38/37 65/40/39 61/35/34
f 65/40/39 66/41/40 62/36/35
f 66/41/40 67/42/41 63/37/36
f 67/42/41 68/24/23 64/22/21
f 29/9/8 69/43/42 65/40/39
f 69/43/42 70/44/43 66/41/40
f 70/44/43 71/47/46 67/42/41
f 67/42/41 71/47/46 72/16/15
f 5/8/7 49/45/44 69/43/42
f 49/45/44 50/46/45 70/44/43
f 50/46/45 51/183/145 71/47/46
f 71/47/46 51/183/145 52/48/47
f 76/49/48 28/52/51 4/11/10
f 80/51/50 27/54/53 28/52/51
f 84/53/52 26/55/54 27/54/53
f 84/53/52 88/13/12 25/15/14
f 2/20/19 20/23/22 73/56/55
f 56/57/56 73/56/55 74/58/57
f 74/58/57 75/61/60 54/60/59
f 75/61/60 76/49/48 53/50/49
f 20/23/22 19/25/24 77/62/61
f 73/56/55 77/62/61 78/63/62
f 78/63/62 79/64/63 75/61/60
f 79/64/63 80/51/50 76/49/48
f 18/26/25 81/65/64 77/62/61
f 81/65/64 82/66/65 78/63/62
f 82/66/65 83/67/66 79/64/63
f 83/67/66 84/53/52 80/51/50
f 17/18/17 85/68/67 81/65/64
f 85/68/67 86/69/68 82/66/65
f 86/69/68 87/72/71 83/67/66
f 83/67/66 87/72/71 88/13/12
f 1/17/16 37/70/69 85/68/67
f 37/70/69 38/71/70 86/69/68
f 38/71/70 39/164/140 87/72/71
f 87/72/71 39/164/140 40/73/72
f 92/74/73 41/78/77 8/75/74
f 96/77/76 42/80/79 41/78/77
f 100/79/78 43/81/80 42/80/79
f 100/79/78 104/10/9 44/12/11
f 6/82/26 16/89/28 89/83/81
f 9/84/82 89/83/81 90/85/83
f 90/85/83 91/88/86 11/87/85
f 91/88/86 92/74/73 12/76/75
f 16/89/28 15/94/30 93/90/87
f 89/83/81 93/90/87 94/91/88
f 90/85/83 94/91/88 95/92/89
f 95/92/89 96/77/76 92/74/73
f 14/93/31 97/98/92 93/90/87
f 93/90/87 97/98/92 98/95/90
f 94/91/88 98/95/90 99/96/91
f 95/92/89 99/96/91 100/79/78
f 13/97/20 101/99/93 97/98/92
f 101/99/93 102/100/94 98/95/90
f 102/100/94 103/101/95 99/96/91
f 99/96/91 103/101/95 104/10/9
f 2/20/19 56/57/56 101/99/93
f 56/57/56 55/59/58 102/100/94
f 55/59/58 54/60/59 103/101/95
f 103/101/95 54/60/59 53/50/49
f 108/102/96 32/34/33 6/27/26
f 112/104/97 31/39/38 32/34/33
f 116/105/98 30/38/37 31/39/38
f 116/105/98 120/7/6 29/9/8
f 8/106/74 21/113/102 105/107/99
f 12/108/75 105/107/99 106/109/100
f 11/110/85 106/109/100 107/111/101
f 107/111/101 108/102/96 9/103/82
f 21/113/102 22/118/107 109/114/103
f 105/107/99 109/114/103 110/115/104
f 106/109/100 110/115/104 111/116/105
f 111/116/105 112/104/97 108/102/96
f 23/117/106 113/119/108 109/114/103
f 113/119/108 114/120/109 110/115/104
f 114/120/109 115/121/110 111/116/105
f 115/121/110 116/105/98 112/104/97
f 24/122/5 117/123/111 113/119/108
f 117/123/111 118/124/112 114/120/109
f 118/124/112 119/128/115 115/121/110
f 115/121/110 119/128/115 120/7/6
f 7/125/2 45/126/113 117/123/111
f 45/126/113 46/184/152 118/124/112
f 118/124/112 46/184/152 47/127/114
f 119/128/115 47/127/114 48/129/116
f 124/130/117 21/134/102 8/131/74
f 128/133/118 22/136/107 21/134/102
f 132/135/119 23/137/106 22/136/107
f 132/135/119 136/4/4 24/6/5
f 4/11/10 28/52/51 121/138/120
f 44/139/11 121/138/120 122/140/121
f 122/140/121 123/143/122 42/142/79
f 123/143/122 124/130/117 41/132/77
f 28/52/51 27/54/53 125/144/123
f 121/138/120 125/144/123 126/145/124
f 126/145/124 127/146/125 123/143/122
f 127/146/125 128/133/118 124/130/117
f 27/54/53 26/55/54 129/147/126
f 125/144/123 129/147/126 130/148/127
f 126/145/124 130/148/127 131/149/128
f 127/146/125 131/149/128 132/135/119
f 25/15/14 133/150/129 129/147/126
f 133/150/129 134/151/130 130/148/127
f 134/151/130 135/154/133 131/149/128
f 131/149/128 135/154/133 136/4/4
f 3/14/13 33/152/131 133/150/129
f 33/152/131 34/153/132 134/151/130
f 34/153/132 35/185/137 135/154/133
f 135/154/133 35/185/137 36/155/3
f 140/156/134 33/158/131 3/14/13
f 144/157/135 34/160/132 33/158/131
f 148/159/136 35/161/137 34/160/132
f 148/159/136 152/1/1 36/3/3
f 1/17/16 52/166/47 137/162/138
f 37/70/69 137/162/138 138/163/139
f 138/163/139 139/165/141 39/164/140
f 139/165/141 140/156/134 40/73/72
f 52/166/47 51/171/145 141/167/142
f 137/162/138 141/167/142 142/168/143
f 138/163/139 142/168/143 143/169/144
f 143/169/144 144/157/135 140/156/134
f 50/170/45 145/175/148 141/167/142
f 141/167/142 145/175/148 146/172/146
f 142/168/143 146/172/146 147/173/147
f 143/169/144 147/173/147 148/159/136
f 49/174/44 149/176/149 145/175/148
f 149/176/149 150/177/150 146/172/146
f 150/177/150 151/181/151 147/173/147
f 147/173/147 151/181/151 152/1/1
f 5/178/7 48/179/116 149/176/149
f 48/179/116 47/180/114 150/177/150
f 47/180/114 46/186/152 151/181/151
f 151/181/151 46/186/152 45/182/113
