# Blender v3.2.2 OBJ File: 'robot.blend'
# www.blender.org
mtllib robot_cube_veins.mtl
o CubeVeins_Cube.002
v -0.969018 0.000000 0.675000
v -0.969018 0.000000 0.350000
v -0.969018 0.075000 0.350000
v -0.350000 0.075000 0.969018
v -0.350000 0.000000 0.969018
v 0.000000 0.675000 0.969018
v 0.000000 0.350000 0.969018
v -0.969018 0.675000 0.000000
v -0.969018 0.350000 0.000000
v -0.969018 0.350000 0.075000
v -0.969018 0.675000 0.075000
v -0.969018 0.075000 0.675000
v -0.675000 0.000000 0.969018
v -0.675000 0.075000 0.969018
v -0.969018 0.725000 0.075000
v -0.969018 0.725000 0.000000
v 0.000000 0.725000 0.969018
v -0.969018 0.075000 0.725000
v -0.969018 0.000000 0.725000
v -0.725000 0.075000 0.969018
v -0.725000 0.000000 0.969018
v -0.075000 0.350000 0.969018
v -0.075000 0.675000 0.969018
v -0.075000 0.725000 0.969018
v -0.075000 0.950000 0.350000
v 0.000000 0.950000 0.350000
v -0.675000 0.950000 0.000000
v -0.350000 0.950000 0.000000
v 0.000000 0.950000 0.675000
v -0.075000 0.950000 0.675000
v -0.725000 0.950000 0.000000
v -0.075000 0.950000 0.725000
v 0.000000 0.950000 0.725000
v -0.350000 0.950000 0.075000
v -0.675000 0.950000 0.075000
v -0.725000 0.950000 0.075000
v 0.969018 0.000000 0.675000
v 0.969018 0.000000 0.350000
v 0.969018 0.075000 0.350000
v 0.350000 0.075000 0.969018
v 0.350000 0.000000 0.969018
v 0.969018 0.675000 0.000000
v 0.969018 0.350000 0.000000
v 0.969018 0.350000 0.075000
v 0.969018 0.675000 0.075000
v 0.969018 0.075000 0.675000
v 0.675000 0.000000 0.969018
v 0.675000 0.075000 0.969018
v 0.969018 0.725000 0.075000
v 0.969018 0.725000 0.000000
v 0.969018 0.075000 0.725000
v 0.969018 0.000000 0.725000
v 0.725000 0.075000 0.969018
v 0.725000 0.000000 0.969018
v 0.075000 0.350000 0.969018
v 0.075000 0.675000 0.969018
v 0.075000 0.725000 0.969018
v 0.075000 0.950000 0.350000
v 0.675000 0.950000 0.000000
v 0.350000 0.950000 0.000000
v 0.075000 0.950000 0.675000
v 0.725000 0.950000 0.000000
v 0.075000 0.950000 0.725000
v 0.350000 0.950000 0.075000
v 0.675000 0.950000 0.075000
v 0.725000 0.950000 0.075000
v -0.969018 0.000000 -0.675000
v -0.969018 0.000000 -0.350000
v -0.969018 0.075000 -0.350000
v -0.350000 0.075000 -0.969018
v -0.350000 0.000000 -0.969018
v 0.000000 0.675000 -0.969018
v 0.000000 0.350000 -0.969018
v -0.969018 0.350000 -0.075000
v -0.969018 0.675000 -0.075000
v -0.969018 0.075000 -0.675000
v -0.675000 0.000000 -0.969018
v -0.675000 0.075000 -0.969018
v -0.969018 0.725000 -0.075000
v 0.000000 0.725000 -0.969018
v -0.969018 0.075000 -0.725000
v -0.969018 0.000000 -0.725000
v -0.725000 0.075000 -0.969018
v -0.725000 0.000000 -0.969018
v -0.075000 0.350000 -0.969018
v -0.075000 0.675000 -0.969018
v -0.075000 0.725000 -0.969018
v -0.075000 0.950000 -0.350000
v 0.000000 0.950000 -0.350000
v 0.000000 0.950000 -0.675000
v -0.075000 0.950000 -0.675000
v -0.075000 0.950000 -0.725000
v 0.000000 0.950000 -0.725000
v -0.350000 0.950000 -0.075000
v -0.675000 0.950000 -0.075000
v -0.725000 0.950000 -0.075000
v 0.969018 0.000000 -0.675000
v 0.969018 0.000000 -0.350000
v 0.969018 0.075000 -0.350000
v 0.350000 0.075000 -0.969018
v 0.350000 0.000000 -0.969018
v 0.969018 0.350000 -0.075000
v 0.969018 0.675000 -0.075000
v 0.969018 0.075000 -0.675000
v 0.675000 0.000000 -0.969018
v 0.675000 0.075000 -0.969018
v 0.969018 0.725000 -0.075000
v 0.969018 0.075000 -0.725000
v 0.969018 0.000000 -0.725000
v 0.725000 0.075000 -0.969018
v 0.725000 0.000000 -0.969018
v 0.075000 0.350000 -0.969018
v 0.075000 0.675000 -0.969018
v 0.075000 0.725000 -0.969018
v 0.075000 0.950000 -0.350000
v 0.075000 0.950000 -0.675000
v 0.075000 0.950000 -0.725000
v 0.350000 0.950000 -0.075000
v 0.675000 0.950000 -0.075000
v 0.725000 0.950000 -0.075000
v -0.969018 -0.075000 0.350000
v -0.350000 -0.075000 0.969018
v 0.000000 -0.675000 0.969018
v 0.000000 -0.350000 0.969018
v -0.969018 -0.675000 0.000000
v -0.969018 -0.350000 0.000000
v -0.969018 -0.350000 0.075000
v -0.969018 -0.675000 0.075000
v -0.969018 -0.075000 0.675000
v -0.675000 -0.075000 0.969018
v -0.969018 -0.725000 0.075000
v -0.969018 -0.725000 0.000000
v 0.000000 -0.725000 0.969018
v -0.969018 -0.075000 0.725000
v -0.725000 -0.075000 0.969018
v -0.075000 -0.350000 0.969018
v -0.075000 -0.675000 0.969018
v -0.075000 -0.725000 0.969018
v -0.075000 -0.950000 0.350000
v 0.000000 -0.950000 0.350000
v -0.675000 -0.950000 0.000000
v -0.350000 -0.950000 0.000000
v 0.000000 -0.950000 0.675000
v -0.075000 -0.950000 0.675000
v -0.725000 -0.950000 0.000000
v -0.075000 -0.950000 0.725000
v 0.000000 -0.950000 0.725000
v -0.350000 -0.950000 0.075000
v -0.675000 -0.950000 0.075000
v -0.725000 -0.950000 0.075000
v 0.969018 -0.075000 0.350000
v 0.350000 -0.075000 0.969018
v 0.969018 -0.675000 0.000000
v 0.969018 -0.350000 0.000000
v 0.969018 -0.350000 0.075000
v 0.969018 -0.675000 0.075000
v 0.969018 -0.075000 0.675000
v 0.675000 -0.075000 0.969018
v 0.969018 -0.725000 0.075000
v 0.969018 -0.725000 0.000000
v 0.969018 -0.075000 0.725000
v 0.725000 -0.075000 0.969018
v 0.075000 -0.350000 0.969018
v 0.075000 -0.675000 0.969018
v 0.075000 -0.725000 0.969018
v 0.075000 -0.950000 0.350000
v 0.675000 -0.950000 0.000000
v 0.350000 -0.950000 0.000000
v 0.075000 -0.950000 0.675000
v 0.725000 -0.950000 0.000000
v 0.075000 -0.950000 0.725000
v 0.350000 -0.950000 0.075000
v 0.675000 -0.950000 0.075000
v 0.725000 -0.950000 0.075000
v -0.969018 -0.075000 -0.350000
v -0.350000 -0.075000 -0.969018
v 0.000000 -0.675000 -0.969018
v 0.000000 -0.350000 -0.969018
v -0.969018 -0.350000 -0.075000
v -0.969018 -0.675000 -0.075000
v -0.969018 -0.075000 -0.675000
v -0.675000 -0.075000 -0.969018
v -0.969018 -0.725000 -0.075000
v 0.000000 -0.725000 -0.969018
v -0.969018 -0.075000 -0.725000
v -0.725000 -0.075000 -0.969018
v -0.075000 -0.350000 -0.969018
v -0.075000 -0.675000 -0.969018
v -0.075000 -0.725000 -0.969018
v -0.075000 -0.950000 -0.350000
v 0.000000 -0.950000 -0.350000
v 0.000000 -0.950000 -0.675000
v -0.075000 -0.950000 -0.675000
v -0.075000 -0.950000 -0.725000
v 0.000000 -0.950000 -0.725000
v -0.350000 -0.950000 -0.075000
v -0.675000 -0.950000 -0.075000
v -0.725000 -0.950000 -0.075000
v 0.969018 -0.075000 -0.350000
v 0.350000 -0.075000 -0.969018
v 0.969018 -0.350000 -0.075000
v 0.969018 -0.675000 -0.075000
v 0.969018 -0.075000 -0.675000
v 0.675000 -0.075000 -0.969018
v 0.969018 -0.725000 -0.075000
v 0.969018 -0.075000 -0.725000
v 0.725000 -0.075000 -0.969018
v 0.075000 -0.350000 -0.969018
v 0.075000 -0.675000 -0.969018
v 0.075000 -0.725000 -0.969018
v 0.075000 -0.950000 -0.350000
v 0.075000 -0.950000 -0.675000
v 0.075000 -0.950000 -0.725000
v 0.350000 -0.950000 -0.075000
v 0.675000 -0.950000 -0.075000
v 0.725000 -0.950000 -0.075000
vt 0.584375 0.115625
vt 0.543750 0.125000
vt 0.543750 0.115625
vt 0.590625 0.125000
vt 0.590625 0.115625
vt 0.500000 0.965625
vt 0.509375 0.959375
vt 0.509375 0.965625
vt 0.509375 0.034375
vt 0.500000 0.040625
vt 0.500000 0.034375
vt 0.509375 0.918750
vt 0.500000 0.959375
vt 0.500000 0.918750
vt 0.509375 0.040625
vt 0.500000 0.081250
vt 0.590625 0.884375
vt 0.584375 0.875000
vt 0.590625 0.875000
vt 0.543750 0.884375
vt 0.543750 0.875000
vt 0.750000 0.715625
vt 0.759375 0.709375
vt 0.759375 0.715625
vt 0.840625 0.634375
vt 0.834375 0.625000
vt 0.840625 0.625000
vt 0.793750 0.634375
vt 0.793750 0.625000
vt 0.759375 0.668750
vt 0.750000 0.709375
vt 0.750000 0.668750
vt 0.543750 0.125000
vt 0.584375 0.115625
vt 0.543750 0.115625
vt 0.590625 0.125000
vt 0.590625 0.115625
vt 0.509375 0.959375
vt 0.500000 0.965625
vt 0.509375 0.965625
vt 0.500000 0.040625
vt 0.509375 0.034375
vt 0.500000 0.034375
vt 0.500000 0.959375
vt 0.509375 0.918750
vt 0.500000 0.918750
vt 0.500000 0.081250
vt 0.509375 0.040625
vt 0.590625 0.884375
vt 0.543750 0.884375
vt 0.759375 0.709375
vt 0.759375 0.715625
vt 0.834375 0.625000
vt 0.840625 0.634375
vt 0.840625 0.625000
vt 0.793750 0.634375
vt 0.793750 0.625000
vt 0.759375 0.668750
vt 0.584375 0.115625
vt 0.543750 0.115625
vt 0.590625 0.115625
vt 0.509375 0.959375
vt 0.500000 0.965625
vt 0.509375 0.965625
vt 0.500000 0.040625
vt 0.509375 0.034375
vt 0.500000 0.034375
vt 0.500000 0.959375
vt 0.509375 0.918750
vt 0.500000 0.918750
vt 0.500000 0.081250
vt 0.509375 0.040625
vt 0.584375 0.875000
vt 0.590625 0.884375
vt 0.590625 0.875000
vt 0.543750 0.884375
vt 0.543750 0.875000
vt 0.759375 0.709375
vt 0.750000 0.715625
vt 0.759375 0.715625
vt 0.840625 0.634375
vt 0.793750 0.634375
vt 0.750000 0.709375
vt 0.759375 0.668750
vt 0.750000 0.668750
vt 0.584375 0.115625
vt 0.543750 0.115625
vt 0.590625 0.115625
vt 0.500000 0.965625
vt 0.509375 0.959375
vt 0.509375 0.965625
vt 0.509375 0.034375
vt 0.500000 0.040625
vt 0.500000 0.034375
vt 0.509375 0.918750
vt 0.500000 0.959375
vt 0.500000 0.918750
vt 0.509375 0.040625
vt 0.500000 0.081250
vt 0.590625 0.884375
vt 0.543750 0.884375
vt 0.759375 0.709375
vt 0.759375 0.715625
vt 0.840625 0.634375
vt 0.793750 0.634375
vt 0.759375 0.668750
vt 0.543750 0.125000
vt 0.584375 0.115625
vt 0.543750 0.115625
vt 0.590625 0.125000
vt 0.590625 0.115625
vt 0.509375 0.959375
vt 0.509375 0.965625
vt 0.509375 0.034375
vt 0.509375 0.918750
vt 0.509375 0.040625
vt 0.584375 0.875000
vt 0.590625 0.884375
vt 0.590625 0.875000
vt 0.543750 0.884375
vt 0.543750 0.875000
vt 0.759375 0.709375
vt 0.750000 0.715625
vt 0.759375 0.715625
vt 0.834375 0.625000
vt 0.840625 0.634375
vt 0.840625 0.625000
vt 0.793750 0.634375
vt 0.793750 0.625000
vt 0.750000 0.709375
vt 0.759375 0.668750
vt 0.750000 0.668750
vt 0.584375 0.115625
vt 0.543750 0.125000
vt 0.543750 0.115625
vt 0.590625 0.125000
vt 0.590625 0.115625
vt 0.509375 0.959375
vt 0.509375 0.965625
vt 0.509375 0.034375
vt 0.509375 0.918750
vt 0.509375 0.040625
vt 0.590625 0.884375
vt 0.543750 0.884375
vt 0.759375 0.709375
vt 0.759375 0.715625
vt 0.840625 0.634375
vt 0.834375 0.625000
vt 0.840625 0.625000
vt 0.793750 0.634375
vt 0.793750 0.625000
vt 0.759375 0.668750
vt 0.584375 0.115625
vt 0.543750 0.115625
vt 0.590625 0.115625
vt 0.509375 0.959375
vt 0.509375 0.965625
vt 0.509375 0.034375
vt 0.509375 0.918750
vt 0.509375 0.040625
vt 0.590625 0.884375
vt 0.584375 0.875000
vt 0.590625 0.875000
vt 0.543750 0.884375
vt 0.543750 0.875000
vt 0.750000 0.715625
vt 0.759375 0.709375
vt 0.759375 0.715625
vt 0.840625 0.634375
vt 0.793750 0.634375
vt 0.759375 0.668750
vt 0.750000 0.709375
vt 0.750000 0.668750
vt 0.584375 0.115625
vt 0.543750 0.115625
vt 0.590625 0.115625
vt 0.509375 0.959375
vt 0.509375 0.965625
vt 0.509375 0.034375
vt 0.509375 0.918750
vt 0.509375 0.040625
vt 0.590625 0.884375
vt 0.543750 0.884375
vt 0.759375 0.709375
vt 0.759375 0.715625
vt 0.840625 0.634375
vt 0.793750 0.634375
vt 0.759375 0.668750
vt 0.584375 0.125000
vt 0.509375 0.081250
vt 0.584375 0.884375
vt 0.834375 0.634375
vt 0.584375 0.125000
vt 0.509375 0.081250
vt 0.584375 0.884375
vt 0.834375 0.634375
vt 0.509375 0.081250
vt 0.584375 0.884375
vt 0.834375 0.634375
vt 0.509375 0.081250
vt 0.584375 0.884375
vt 0.834375 0.634375
vt 0.584375 0.125000
vt 0.509375 0.081250
vt 0.584375 0.884375
vt 0.834375 0.634375
vt 0.584375 0.125000
vt 0.509375 0.081250
vt 0.584375 0.884375
vt 0.834375 0.634375
vt 0.509375 0.081250
vt 0.584375 0.884375
vt 0.834375 0.634375
vt 0.509375 0.081250
vt 0.584375 0.884375
vt 0.834375 0.634375
vn -1.0000 0.0000 0.0000
vn 0.0000 0.0000 1.0000
vn 0.0000 1.0000 0.0000
vn 1.0000 0.0000 0.0000
vn 0.0000 0.0000 -1.0000
vn 0.0000 -1.0000 0.0000
usemtl Material
s off
f 11/1/1 9/2/1 10/3/1
f 16/4/1 11/1/1 15/5/1
f 21/6/2 14/7/2 20/8/2
f 18/9/1 1/10/1 19/11/1
f 4/12/2 13/13/2 5/14/2
f 12/15/1 2/16/1 1/10/1
f 24/17/2 6/18/2 17/19/2
f 6/18/2 22/20/2 7/21/2
f 33/22/3 30/23/3 32/24/3
f 36/25/3 27/26/3 31/27/3
f 27/26/3 34/28/3 28/29/3
f 25/30/3 29/31/3 26/32/3
f 43/33/4 45/34/4 44/35/4
f 45/34/4 50/36/4 49/37/4
f 48/38/2 54/39/2 53/40/2
f 37/41/4 51/42/4 52/43/4
f 47/44/2 40/45/2 41/46/2
f 38/47/4 46/48/4 37/41/4
f 6/18/2 57/49/2 17/19/2
f 55/50/2 6/18/2 7/21/2
f 61/51/3 33/22/3 63/52/3
f 59/53/3 66/54/3 62/55/3
f 64/56/3 59/53/3 60/57/3
f 29/31/3 58/58/3 26/32/3
f 9/2/1 75/59/1 74/60/1
f 75/59/1 16/4/1 79/61/1
f 78/62/5 84/63/5 83/64/5
f 67/65/1 81/66/1 82/67/1
f 77/68/5 70/69/5 71/70/5
f 68/71/1 76/72/1 67/65/1
f 72/73/5 87/74/5 80/75/5
f 85/76/5 72/73/5 73/77/5
f 91/78/3 93/79/3 92/80/3
f 27/26/3 96/81/3 31/27/3
f 94/82/3 27/26/3 28/29/3
f 90/83/3 88/84/3 89/85/3
f 103/86/4 43/33/4 102/87/4
f 50/36/4 103/86/4 107/88/4
f 111/89/5 106/90/5 110/91/5
f 108/92/4 97/93/4 109/94/4
f 100/95/5 105/96/5 101/97/5
f 104/98/4 98/99/4 97/93/4
f 114/100/5 72/73/5 80/75/5
f 72/73/5 112/101/5 73/77/5
f 93/79/3 116/102/3 117/103/3
f 120/104/3 59/53/3 62/55/3
f 59/53/3 118/105/3 60/57/3
f 115/106/3 90/83/3 89/85/3
f 126/107/1 128/108/1 127/109/1
f 128/108/1 132/110/1 131/111/1
f 130/112/2 21/6/2 135/113/2
f 1/10/1 134/114/1 19/11/1
f 13/13/2 122/115/2 5/14/2
f 2/16/1 129/116/1 1/10/1
f 123/117/2 138/118/2 133/119/2
f 136/120/2 123/117/2 124/121/2
f 144/122/6 147/123/6 146/124/6
f 141/125/6 150/126/6 145/127/6
f 148/128/6 141/125/6 142/129/6
f 143/130/6 139/131/6 140/132/6
f 156/133/4 154/134/4 155/135/4
f 160/136/4 156/133/4 159/137/4
f 54/39/2 158/138/2 162/139/2
f 161/140/4 37/41/4 52/43/4
f 152/141/2 47/44/2 41/46/2
f 157/142/4 38/47/4 37/41/4
f 165/143/2 123/117/2 133/119/2
f 123/117/2 163/144/2 124/121/2
f 147/123/6 169/145/6 171/146/6
f 174/147/6 167/148/6 170/149/6
f 167/148/6 172/150/6 168/151/6
f 166/152/6 143/130/6 140/132/6
f 180/153/1 126/107/1 179/154/1
f 132/110/1 180/153/1 183/155/1
f 84/63/5 182/156/5 186/157/5
f 185/158/1 67/65/1 82/67/1
f 176/159/5 77/68/5 71/70/5
f 181/160/1 68/71/1 67/65/1
f 189/161/5 177/162/5 184/163/5
f 177/162/5 187/164/5 178/165/5
f 195/166/6 193/167/6 194/168/6
f 198/169/6 141/125/6 145/127/6
f 141/125/6 196/170/6 142/129/6
f 190/171/6 192/172/6 191/173/6
f 154/134/4 202/174/4 201/175/4
f 202/174/4 160/136/4 205/176/4
f 204/177/5 111/89/5 207/178/5
f 97/93/4 206/179/4 109/94/4
f 105/96/5 200/180/5 101/97/5
f 98/99/4 203/181/4 97/93/4
f 177/162/5 210/182/5 184/163/5
f 208/183/5 177/162/5 178/165/5
f 212/184/6 195/166/6 213/185/6
f 167/148/6 216/186/6 170/149/6
f 214/187/6 167/148/6 168/151/6
f 192/172/6 211/188/6 191/173/6
f 11/1/1 8/189/1 9/2/1
f 16/4/1 8/189/1 11/1/1
f 21/6/2 13/13/2 14/7/2
f 18/9/1 12/15/1 1/10/1
f 4/12/2 14/7/2 13/13/2
f 12/15/1 3/190/1 2/16/1
f 24/17/2 23/191/2 6/18/2
f 6/18/2 23/191/2 22/20/2
f 33/22/3 29/31/3 30/23/3
f 36/25/3 35/192/3 27/26/3
f 27/26/3 35/192/3 34/28/3
f 25/30/3 30/23/3 29/31/3
f 43/33/4 42/193/4 45/34/4
f 45/34/4 42/193/4 50/36/4
f 48/38/2 47/44/2 54/39/2
f 37/41/4 46/48/4 51/42/4
f 47/44/2 48/38/2 40/45/2
f 38/47/4 39/194/4 46/48/4
f 6/18/2 56/195/2 57/49/2
f 55/50/2 56/195/2 6/18/2
f 61/51/3 29/31/3 33/22/3
f 59/53/3 65/196/3 66/54/3
f 64/56/3 65/196/3 59/53/3
f 29/31/3 61/51/3 58/58/3
f 9/2/1 8/189/1 75/59/1
f 75/59/1 8/189/1 16/4/1
f 78/62/5 77/68/5 84/63/5
f 67/65/1 76/72/1 81/66/1
f 77/68/5 78/62/5 70/69/5
f 68/71/1 69/197/1 76/72/1
f 72/73/5 86/198/5 87/74/5
f 85/76/5 86/198/5 72/73/5
f 91/78/3 90/83/3 93/79/3
f 27/26/3 95/199/3 96/81/3
f 94/82/3 95/199/3 27/26/3
f 90/83/3 91/78/3 88/84/3
f 103/86/4 42/193/4 43/33/4
f 50/36/4 42/193/4 103/86/4
f 111/89/5 105/96/5 106/90/5
f 108/92/4 104/98/4 97/93/4
f 100/95/5 106/90/5 105/96/5
f 104/98/4 99/200/4 98/99/4
f 114/100/5 113/201/5 72/73/5
f 72/73/5 113/201/5 112/101/5
f 93/79/3 90/83/3 116/102/3
f 120/104/3 119/202/3 59/53/3
f 59/53/3 119/202/3 118/105/3
f 115/106/3 116/102/3 90/83/3
f 126/107/1 125/203/1 128/108/1
f 128/108/1 125/203/1 132/110/1
f 130/112/2 13/13/2 21/6/2
f 1/10/1 129/116/1 134/114/1
f 13/13/2 130/112/2 122/115/2
f 2/16/1 121/204/1 129/116/1
f 123/117/2 137/205/2 138/118/2
f 136/120/2 137/205/2 123/117/2
f 144/122/6 143/130/6 147/123/6
f 141/125/6 149/206/6 150/126/6
f 148/128/6 149/206/6 141/125/6
f 143/130/6 144/122/6 139/131/6
f 156/133/4 153/207/4 154/134/4
f 160/136/4 153/207/4 156/133/4
f 54/39/2 47/44/2 158/138/2
f 161/140/4 157/142/4 37/41/4
f 152/141/2 158/138/2 47/44/2
f 157/142/4 151/208/4 38/47/4
f 165/143/2 164/209/2 123/117/2
f 123/117/2 164/209/2 163/144/2
f 147/123/6 143/130/6 169/145/6
f 174/147/6 173/210/6 167/148/6
f 167/148/6 173/210/6 172/150/6
f 166/152/6 169/145/6 143/130/6
f 180/153/1 125/203/1 126/107/1
f 132/110/1 125/203/1 180/153/1
f 84/63/5 77/68/5 182/156/5
f 185/158/1 181/160/1 67/65/1
f 176/159/5 182/156/5 77/68/5
f 181/160/1 175/211/1 68/71/1
f 189/161/5 188/212/5 177/162/5
f 177/162/5 188/212/5 187/164/5
f 195/166/6 192/172/6 193/167/6
f 198/169/6 197/213/6 141/125/6
f 141/125/6 197/213/6 196/170/6
f 190/171/6 193/167/6 192/172/6
f 154/134/4 153/207/4 202/174/4
f 202/174/4 153/207/4 160/136/4
f 204/177/5 105/96/5 111/89/5
f 97/93/4 203/181/4 206/179/4
f 105/96/5 204/177/5 200/180/5
f 98/99/4 199/214/4 203/181/4
f 177/162/5 209/215/5 210/182/5
f 208/183/5 209/215/5 177/162/5
f 212/184/6 192/172/6 195/166/6
f 167/148/6 215/216/6 216/186/6
f 214/187/6 215/216/6 167/148/6
f 192/172/6 212/184/6 211/188/6
